# xmcd
#
# Track frame offsets:
#	150
#	16787
#	34024
#	51244
#	69051
#	86413
#	103506
#	119231
#	132374
#	146523
#	161438
#	175512
#	194333
#	207317
#	221879
#	236138
#	246708
#	263784
#	276204
#
# Disc length: 3894 seconds
#
# Revision: 1
# Processed by: cddbd v1.5.2PL0 Copyright (c) Steve Scherf et al.
# Submitted via: audiograbber 1.83.01
#
DISCID=1a0f3413
DTITLE=Μαργαρίτης Γιώργος - Τα Γούστα
DYEAR=2002
DGENRE=Λαικά
TTITLE0=Ουίσκι τζίν και φρούμελ
TTITLE1=Ένας σκύλος και μια γυναίκα
TTITLE2=¨Οσο σ'αγαπώ αν μ'αγαπάς
TTITLE3=Λιτανεία
TTITLE4=Γιατί γλυκό μου sweetheart
TTITLE5=Φεύγωντας
TTITLE6=Αν σε χάσω άν
TTITLE7=Αφιλότιμη
TTITLE8=Εξω απ'άδικο
TTITLE9=Είδα κι έπαθα κυρά μου
TTITLE10=Τρελός
TTITLE11=Ο λαός τραγούδι θέλει
TTITLE12=Μέσ'της πόλης το χαμάμ
TTITLE13=Γυάλινος κόσμος
TTITLE14=Το κορίτσι απόψε θέλει
TTITLE15=Δεν πρέπει
TTITLE16=Μπρός γκρεμός και πίσω ρέμα
TTITLE17=Τι θές και πάς στις μάγισσες
TTITLE18=Το ψωμί της ξενητιάς
EXTD=
EXTT0=
EXTT1=
EXTT2=
EXTT3=
EXTT4=
EXTT5=
EXTT6=
EXTT7=
EXTT8=
EXTT9=
EXTT10=
EXTT11=
EXTT12=
EXTT13=
EXTT14=
EXTT15=
EXTT16=
EXTT17=
EXTT18=
PLAYORDER=
